<svg width="1440" height="1024" viewBox="0 0 1440 1024" fill="none" xmlns="http://www.w3.org/2000/svg">
<rect width="1440" height="1024" fill="white"/>
<path d="M399.76 533.24V530.936L374.48 517.624L399.76 504.184V501.88L371.856 516.92V518.264L399.76 533.24ZM429.913 539V517.304C429.913 510.008 426.393 507.32 420.249 507.32C415.961 507.32 411.353 510.136 409.049 512.952V496.312H407.129V539H409.049V514.872C411.225 511.8 415.769 509.048 419.993 509.048C424.793 509.048 427.993 510.84 427.993 517.304V539H429.913ZM446.574 539.768C448.878 539.768 450.158 539 451.374 537.848L450.222 536.376C449.454 537.272 448.11 538.04 446.574 538.04C444.27 538.04 443.246 536.184 443.246 533.56V509.816H449.518V508.088H443.246V499.64H441.326V508.088H436.206V509.816H441.326V533.56C441.326 537.4 442.99 539.768 446.574 539.768ZM495.589 539V516.728C495.589 510.584 492.965 507.32 487.333 507.32C483.045 507.32 478.885 510.328 477.157 513.208C476.517 510.328 474.021 507.32 469.157 507.32C464.741 507.32 460.517 510.904 459.237 512.952V508.088H457.317V539H459.237V514.872C461.285 511.736 465.381 509.048 468.837 509.048C473.509 509.048 475.493 511.928 475.493 516.728V539H477.413V514.808C479.333 511.672 483.557 509.048 487.013 509.048C491.685 509.048 493.669 511.928 493.669 516.728V539H495.589ZM508.487 539V496.312H506.567V539H508.487ZM543.76 518.264V516.92L515.856 501.88V504.184L541.136 517.624L515.856 530.936V533.24L543.76 518.264Z" fill="#F6F6F6"/>
<path d="M560.84 653.768C567.432 653.768 573.128 649.672 573.128 641.16V610.312H571.08V641.16C571.08 647.432 567.176 651.848 560.84 651.848C556.488 651.848 553.736 649.48 551.752 646.664L550.024 648.2C552.776 652.04 556.168 653.768 560.84 653.768ZM606.142 653V630.664C606.142 624.392 601.598 621.32 595.518 621.32C590.334 621.32 587.134 623.112 584.126 626.632L585.598 627.912C588.478 624.456 591.486 623.048 595.518 623.048C600.254 623.048 604.222 625.736 604.222 630.728V637.704C601.342 634.568 597.886 633.16 593.534 633.16C588.03 633.16 582.718 636.872 582.718 643.464C582.718 650.056 588.094 653.768 593.534 653.768C597.886 653.768 601.342 652.36 604.222 649.224V653H606.142ZM594.046 652.04C588.414 652.04 584.83 648.264 584.83 643.464C584.83 638.664 588.414 634.888 594.046 634.888C598.078 634.888 601.854 636.488 604.222 639.624V647.304C601.854 650.44 598.078 652.04 594.046 652.04ZM627.817 653L641.065 622.088H638.825L626.729 650.76L614.569 622.088H612.329L625.577 653H627.817ZM669.142 653V630.664C669.142 624.392 664.598 621.32 658.518 621.32C653.334 621.32 650.134 623.112 647.126 626.632L648.598 627.912C651.478 624.456 654.486 623.048 658.518 623.048C663.254 623.048 667.222 625.736 667.222 630.728V637.704C664.342 634.568 660.886 633.16 656.534 633.16C651.03 633.16 645.718 636.872 645.718 643.464C645.718 650.056 651.094 653.768 656.534 653.768C660.886 653.768 664.342 652.36 667.222 649.224V653H669.142ZM657.046 652.04C651.414 652.04 647.83 648.264 647.83 643.464C647.83 638.664 651.414 634.888 657.046 634.888C661.078 634.888 664.854 636.488 667.222 639.624V647.304C664.854 650.44 661.078 652.04 657.046 652.04ZM693.441 653.768C704.961 653.768 709.185 647.432 709.185 641.224C709.185 625.288 683.905 630.792 683.905 621.192C683.905 617.16 687.553 614.408 692.673 614.408C697.345 614.408 701.825 616.008 705.025 619.528L708.225 615.624C704.641 611.848 699.585 609.672 693.057 609.672C684.673 609.672 678.401 614.472 678.401 621.512C678.401 636.744 703.681 630.664 703.681 641.672C703.681 644.936 701.249 649.032 693.633 649.032C687.617 649.032 683.009 646.088 680.193 642.952L677.057 646.984C680.577 650.952 686.017 653.768 693.441 653.768ZM730.557 653.768C735.613 653.768 738.493 651.848 741.117 648.584L739.709 647.368C737.213 650.76 734.269 652.04 730.685 652.04C722.749 652.04 718.077 645.576 718.077 637.512C718.077 629.448 722.749 623.048 730.685 623.048C734.269 623.048 737.213 624.264 739.709 627.656L741.117 626.504C738.493 623.24 735.613 621.32 730.557 621.32C721.597 621.32 715.965 628.616 715.965 637.512C715.965 646.408 721.597 653.768 730.557 653.768ZM751.112 653V629.832C752.52 626.952 756.936 623.752 760.2 623.752C760.776 623.752 761.16 623.752 761.736 623.816V621.512C757.256 621.512 753.864 624.072 751.112 627.72V622.088H749.192V653H751.112ZM769.589 616.776C770.613 616.776 771.445 615.944 771.445 614.92C771.445 613.896 770.613 613.064 769.589 613.064C768.629 613.064 767.733 613.896 767.733 614.92C767.733 615.944 768.629 616.776 769.589 616.776ZM770.549 653V622.088H768.629V653H770.549ZM794.623 653.768C802.943 653.768 808.447 647.24 808.447 637.512C808.447 627.72 802.943 621.32 794.623 621.32C789.759 621.32 785.599 624.072 783.487 627.272V622.088H781.567V664.776H783.487V647.688C785.983 651.336 790.015 653.768 794.623 653.768ZM794.623 652.04C789.823 652.04 785.407 649.032 783.487 645.768V629.192C785.407 625.928 789.823 623.048 794.623 623.048C802.175 623.048 806.335 629.384 806.335 637.512C806.335 645.64 802.175 652.04 794.623 652.04ZM823.136 653.768C825.44 653.768 826.72 653 827.936 651.848L826.784 650.376C826.016 651.272 824.672 652.04 823.136 652.04C820.832 652.04 819.808 650.184 819.808 647.56V623.816H826.08V622.088H819.808V613.64H817.888V622.088H812.768V623.816H817.888V647.56C817.888 651.4 819.552 653.768 823.136 653.768Z" fill="#F6F6F6"/>
<path d="M697.628 555.768C703.644 555.768 708.508 553.528 712.54 548.984L710.876 547.64C707.868 551.416 702.94 553.848 697.628 553.848C686.94 553.848 678.556 545.592 678.556 533.688C678.556 521.656 686.94 513.528 697.628 513.528C702.94 513.528 707.868 515.96 710.876 519.736L712.476 518.328C708.7 513.976 703.644 511.608 697.628 511.608C685.788 511.608 676.316 520.568 676.316 533.688C676.316 546.808 685.788 555.768 697.628 555.768ZM693.398 603.768C704.918 603.768 707.99 596.984 707.99 592.184C707.99 576.248 682.07 582.648 682.07 570.488C682.07 565.24 686.998 561.528 693.206 561.528C698.134 561.528 702.422 563.192 705.43 567.096L707.03 565.624C704.022 561.912 699.478 559.608 693.206 559.608C686.166 559.608 679.83 563.576 679.83 570.488C679.83 585.08 705.75 578.104 705.75 592.184C705.75 596.216 703.254 601.848 693.398 601.848C687.254 601.848 682.774 598.712 680.15 595.512L678.486 596.984C681.558 600.888 686.742 603.768 693.398 603.768Z" fill="#F6F6F6"/>
<path d="M693.128 704.768C701.832 704.768 706.76 699.584 706.76 692.672C706.76 685.376 700.552 682.24 697.032 681.92C700.36 681.344 706.12 678.72 706.12 671.808C706.12 664.576 699.784 660.672 693.128 660.672C687.24 660.672 682.696 663.488 679.88 667.072L681.48 668.352C684.68 664.576 688.008 662.592 693.128 662.592C698.952 662.592 704.072 665.92 704.072 671.808C704.072 678.272 698.312 680.96 692.36 680.96C690.568 680.96 689.416 680.96 688.776 680.896V682.944C689.416 682.88 690.632 682.88 692.36 682.88C698.888 682.88 704.712 685.696 704.712 692.672C704.712 699.008 700.168 702.848 693.128 702.848C687.304 702.848 683.272 700.096 681.096 696.576L679.304 697.6C681.544 701.44 686.408 704.768 693.128 704.768Z" fill="#F6F6F6"/>
<path d="M856.632 572L842.624 552.416C849.968 552.416 856.02 547.792 856.02 539.496C856.02 531.2 849.968 526.644 842.624 526.644H826.984V572H829.16V552.416H840.04L853.844 572H856.632ZM842.624 550.376H829.16V528.684H842.624C849.288 528.684 853.64 533.24 853.64 539.496C853.64 545.752 849.288 550.376 842.624 550.376ZM878.516 572.816C884.024 572.816 887.832 570.776 891.164 567.308L889.94 566.016C886.88 569.28 883.14 570.98 878.516 570.98C870.152 570.98 864.916 564.248 864.712 556.224H893.068V555.544C893.068 546.432 887.9 538.34 877.836 538.34C868.996 538.34 862.4 546.024 862.4 555.544C862.4 565.54 868.996 572.816 878.516 572.816ZM890.892 554.388H864.712C864.916 547.928 869.336 540.176 877.768 540.176C886.744 540.176 890.892 548.064 890.892 554.388ZM926.272 572V548.268C926.272 541.604 921.444 538.34 914.984 538.34C909.476 538.34 906.076 540.244 902.88 543.984L904.444 545.344C907.504 541.672 910.7 540.176 914.984 540.176C920.016 540.176 924.232 543.032 924.232 548.336V555.748C921.172 552.416 917.5 550.92 912.876 550.92C907.028 550.92 901.384 554.864 901.384 561.868C901.384 568.872 907.096 572.816 912.876 572.816C917.5 572.816 921.172 571.32 924.232 567.988V572H926.272ZM913.42 570.98C907.436 570.98 903.628 566.968 903.628 561.868C903.628 556.768 907.436 552.756 913.42 552.756C917.704 552.756 921.716 554.456 924.232 557.788V565.948C921.716 569.28 917.704 570.98 913.42 570.98ZM951.682 572.816C957.054 572.816 960.114 570.776 962.902 567.308L961.406 566.016C958.754 569.62 955.626 570.98 951.818 570.98C943.386 570.98 938.422 564.112 938.422 555.544C938.422 546.976 943.386 540.176 951.818 540.176C955.626 540.176 958.754 541.468 961.406 545.072L962.902 543.848C960.114 540.38 957.054 538.34 951.682 538.34C942.162 538.34 936.178 546.092 936.178 555.544C936.178 564.996 942.162 572.816 951.682 572.816ZM977.465 572.816C979.913 572.816 981.273 572 982.565 570.776L981.341 569.212C980.525 570.164 979.097 570.98 977.465 570.98C975.017 570.98 973.929 569.008 973.929 566.22V540.992H980.593V539.156H973.929V530.18H971.889V539.156H966.449V540.992H971.889V566.22C971.889 570.3 973.657 572.816 977.465 572.816ZM1013.28 572.816C1021.37 572.816 1027.69 568.192 1027.69 558.332V526.644H1022.05V558.264C1022.05 563.908 1018.51 567.784 1012.94 567.784C1008.99 567.784 1006.34 565.676 1004.37 563.296L1001.44 567.58C1004.57 571.252 1008.45 572.816 1013.28 572.816ZM1052.96 572.816C1065.2 572.816 1069.69 566.084 1069.69 559.488C1069.69 542.556 1042.83 548.404 1042.83 538.204C1042.83 533.92 1046.7 530.996 1052.14 530.996C1057.11 530.996 1061.87 532.696 1065.27 536.436L1068.67 532.288C1064.86 528.276 1059.49 525.964 1052.55 525.964C1043.64 525.964 1036.98 531.064 1036.98 538.544C1036.98 554.728 1063.84 548.268 1063.84 559.964C1063.84 563.432 1061.26 567.784 1053.16 567.784C1046.77 567.784 1041.88 564.656 1038.88 561.324L1035.55 565.608C1039.29 569.824 1045.07 572.816 1052.96 572.816Z" fill="#F6F6F6"/>
<path d="M1062.78 518V516.32H1041.72V499.632H1062.38V497.952H1041.72V482.328H1062.78V480.648H1039.93V518H1062.78Z" fill="#F6F6F6"/>
<path d="M1053.63 617.672C1061.47 617.672 1065.67 611.736 1065.67 606.024C1065.67 598.072 1060.58 594.264 1053.86 594.264C1048.48 594.264 1044 598.352 1042.49 600.928C1042.43 600.256 1042.43 599.584 1042.43 598.912C1042.43 590.344 1045.18 580.768 1053.97 580.768C1058.34 580.768 1060.63 582.728 1062.42 585.304L1063.77 584.128C1061.7 581.16 1058.95 579.088 1053.97 579.088C1043.94 579.088 1040.64 589.28 1040.64 598.352C1040.64 608.208 1043.94 617.672 1053.63 617.672ZM1053.63 615.992C1046.07 615.992 1043.22 608.768 1042.71 603.224C1044.95 599.024 1049.32 595.944 1053.8 595.944C1059.68 595.944 1063.88 599.248 1063.88 606.024C1063.88 610.448 1060.63 615.992 1053.63 615.992Z" fill="#F6F6F6"/>
<path d="M411.88 699.576C416.824 699.576 421.096 696.504 421.096 690.12V666.984H419.56V690.12C419.56 694.824 416.632 698.136 411.88 698.136C408.616 698.136 406.552 696.36 405.064 694.248L403.768 695.4C405.832 698.28 408.376 699.576 411.88 699.576ZM443.649 699.576C447.345 699.576 450.561 698.376 453.057 696.36L456.801 700.104L457.857 699L454.161 695.352C457.137 692.328 458.865 687.96 458.865 683.016C458.865 673.752 452.913 666.456 443.649 666.456C434.337 666.456 428.433 673.752 428.433 683.016C428.433 692.28 434.337 699.576 443.649 699.576ZM443.649 698.136C435.345 698.136 430.113 691.704 430.113 683.016C430.113 674.232 435.345 667.896 443.649 667.896C451.857 667.896 457.185 674.232 457.185 683.016C457.185 687.624 455.697 691.56 453.105 694.248L447.777 688.872L446.673 689.976L451.953 695.304C449.745 697.08 446.913 698.136 443.649 698.136ZM483.185 699V675.816H481.745V694.056C480.113 696.36 476.705 698.28 473.537 698.28C469.937 698.28 467.537 696.936 467.537 692.088V675.816H466.097V692.088C466.097 697.56 468.737 699.576 473.345 699.576C476.561 699.576 479.777 697.656 481.745 695.448V699H483.185ZM501.584 699.576C505.472 699.576 508.16 698.136 510.512 695.688L509.648 694.776C507.488 697.08 504.848 698.28 501.584 698.28C495.68 698.28 491.984 693.528 491.84 687.864H511.856V687.384C511.856 680.952 508.208 675.24 501.104 675.24C494.864 675.24 490.208 680.664 490.208 687.384C490.208 694.44 494.864 699.576 501.584 699.576ZM510.32 686.568H491.84C491.984 682.008 495.104 676.536 501.056 676.536C507.392 676.536 510.32 682.104 510.32 686.568ZM520.318 699V681.624C521.374 679.464 524.686 677.064 527.134 677.064C527.566 677.064 527.854 677.064 528.286 677.112V675.384C524.926 675.384 522.382 677.304 520.318 680.04V675.816H518.878V699H520.318ZM531.728 708.072C532.304 708.264 533.216 708.408 534.032 708.408C536.336 708.408 538.016 706.968 539.12 704.472L551.408 675.816H549.728L540.656 697.32L531.536 675.816H529.856L539.792 699.144L537.68 703.944C536.624 706.44 535.568 707.112 534.032 707.112C533.456 707.112 532.544 706.968 532.016 706.728L531.728 708.072Z" fill="#F6F6F6"/>
<path d="M741.348 739C745.56 739 748.224 736.624 748.224 732.52C748.224 729.748 746.064 727.012 743.508 726.616C745.632 726.184 747.756 724.132 747.756 721.108C747.756 717.148 745.056 714.988 741.204 714.988H732.168V739H741.348ZM741.204 726.112H733.32V716.068H741.204C744.732 716.068 746.496 718.372 746.496 721.108C746.496 723.88 744.732 726.112 741.204 726.112ZM741.348 737.92H733.32V727.192H741.348C745.092 727.192 746.964 729.82 746.964 732.556C746.964 735.832 744.876 737.92 741.348 737.92ZM760.846 739.432C765.778 739.432 768.946 735.4 768.946 730.288C768.946 725.176 765.778 721.18 760.846 721.18C755.95 721.18 752.746 725.176 752.746 730.288C752.746 735.4 755.95 739.432 760.846 739.432ZM760.846 738.46C756.418 738.46 753.934 734.536 753.934 730.288C753.934 726.076 756.418 722.152 760.846 722.152C765.31 722.152 767.758 726.076 767.758 730.288C767.758 734.536 765.31 738.46 760.846 738.46ZM781.377 739.432C786.309 739.432 789.477 735.4 789.477 730.288C789.477 725.176 786.309 721.18 781.377 721.18C776.481 721.18 773.277 725.176 773.277 730.288C773.277 735.4 776.481 739.432 781.377 739.432ZM781.377 738.46C776.949 738.46 774.465 734.536 774.465 730.288C774.465 726.076 776.949 722.152 781.377 722.152C785.841 722.152 788.289 726.076 788.289 730.288C788.289 734.536 785.841 738.46 781.377 738.46ZM797.912 739.432C799.208 739.432 799.928 739 800.612 738.352L799.964 737.524C799.532 738.028 798.776 738.46 797.912 738.46C796.616 738.46 796.04 737.416 796.04 735.94V722.584H799.568V721.612H796.04V716.86H794.96V721.612H792.08V722.584H794.96V735.94C794.96 738.1 795.896 739.432 797.912 739.432ZM808.815 739.432C813.027 739.432 815.043 737.128 815.043 734.428C815.043 727.84 803.883 730.648 803.883 725.788C803.883 723.736 805.683 722.152 808.707 722.152C811.047 722.152 812.883 723.088 813.891 724.528L814.683 723.808C813.567 722.368 811.695 721.18 808.707 721.18C804.963 721.18 802.803 723.232 802.803 725.788C802.803 731.872 813.963 729.1 813.963 734.428C813.963 736.732 812.019 738.46 808.815 738.46C806.259 738.46 804.387 737.308 803.307 735.868L802.443 736.66C804.171 738.64 806.079 739.432 808.815 739.432ZM823.471 739.432C824.767 739.432 825.487 739 826.171 738.352L825.523 737.524C825.091 738.028 824.335 738.46 823.471 738.46C822.175 738.46 821.599 737.416 821.599 735.94V722.584H825.127V721.612H821.599V716.86H820.519V721.612H817.639V722.584H820.519V735.94C820.519 738.1 821.455 739.432 823.471 739.432ZM830.594 739V725.968C831.386 724.348 833.87 722.548 835.706 722.548C836.03 722.548 836.246 722.548 836.57 722.584V721.288C834.05 721.288 832.142 722.728 830.594 724.78V721.612H829.514V739H830.594ZM852.76 739V726.436C852.76 722.908 850.204 721.18 846.784 721.18C843.868 721.18 842.068 722.188 840.376 724.168L841.204 724.888C842.824 722.944 844.516 722.152 846.784 722.152C849.448 722.152 851.68 723.664 851.68 726.472V730.396C850.06 728.632 848.116 727.84 845.668 727.84C842.572 727.84 839.584 729.928 839.584 733.636C839.584 737.344 842.608 739.432 845.668 739.432C848.116 739.432 850.06 738.64 851.68 736.876V739H852.76ZM845.956 738.46C842.788 738.46 840.772 736.336 840.772 733.636C840.772 730.936 842.788 728.812 845.956 728.812C848.224 728.812 850.348 729.712 851.68 731.476V735.796C850.348 737.56 848.224 738.46 845.956 738.46ZM866.284 739.432C870.964 739.432 874.06 735.76 874.06 730.288C874.06 724.78 870.964 721.18 866.284 721.18C863.548 721.18 861.208 722.728 860.02 724.528V721.612H858.94V745.624H860.02V736.012C861.424 738.064 863.692 739.432 866.284 739.432ZM866.284 738.46C863.584 738.46 861.1 736.768 860.02 734.932V725.608C861.1 723.772 863.584 722.152 866.284 722.152C870.532 722.152 872.872 725.716 872.872 730.288C872.872 734.86 870.532 738.46 866.284 738.46Z" fill="#F6F6F6"/>
</svg>
