<svg width="100" height="71" viewBox="0 0 100 71" fill="none" xmlns="http://www.w3.org/2000/svg">
<path d="M84.5852 13.7915C93.3285 22.4711 98.8907 35.3483 98.9984 52.2219L95.0465 52.2219L47 52.2219H0.501814C0.612732 36.9518 5.80521 24.0825 14.5476 15.0053C23.3842 5.83046 35.876 0.5 50.5 0.5C63.635 0.5 75.7528 5.0234 84.5852 13.7915Z" fill="#F8F9FA" stroke="#DEE2E6"/>
<path d="M50 23.3286L70.7846 50.7143H29.2154L50 23.3286Z" fill="white"/>
<path d="M50 29.4145L72 51.9674H28L50 29.4145Z" fill="#F8F9FA"/>
<path d="M50 36.5143L70.7846 62.3786H29.2154L50 36.5143Z" fill="white"/>
<path d="M50 42.262L66 52.4049H34L50 42.262Z" fill="#F8F9FA"/>
<path d="M0 52.2357H100" stroke="#F8F9FA"/>
<path d="M0 51.2214H100" stroke="#F8F9FA"/>
</svg>
